<svg xmlns="http://www.w3.org/2000/svg" width="800" height="600" viewBox="0 0 800 600">
  <defs>
    <linearGradient id="bg" x1="0%" y1="0%" x2="100%" y2="100%" gradientTransform="rotate(57 0.5 0.5)">
      <stop offset="0%" stop-color="#4A0C16"/>
      <stop offset="55%" stop-color="#6B1220"/>
      <stop offset="100%" stop-color="#4A0C16"/>
    </linearGradient>
    <linearGradient id="sheen" x1="0%" y1="0%" x2="0%" y2="100%">
      <stop offset="0%" stop-color="#000000" stop-opacity="0"/>
      <stop offset="100%" stop-color="#000000" stop-opacity="0.35"/>
    </linearGradient>
  </defs>
  <rect width="800" height="600" fill="url(#bg)"/>
  
  <g transform="translate(400 252) scale(0.967741935483871)" opacity="0.14">
    <circle r="120" fill="none" stroke="#F7F1E6" stroke-width="6"/>
    <circle r="86" fill="none" stroke="#F7F1E6" stroke-width="3"/>
    <g transform="translate(-190 -10)">
      <rect x="-6" y="-95" width="12" height="150" rx="6" fill="#F7F1E6"/>
      <path d="M -24 -95 L -24 -45 Q -24 -30 -12 -30 L -12 -95 M 0 -95 L 0 -45 M 12 -95 L 12 -45 Q 12 -30 24 -30 L 24 -95" stroke="#F7F1E6" stroke-width="6" fill="none" stroke-linecap="round" stroke-linejoin="round"/>
    </g>
    <g transform="translate(190 -10)">
      <path d="M -8 -95 Q 20 -70 16 -20 Q 12 10 -4 20 L -4 95" stroke="#F7F1E6" stroke-width="12" fill="none" stroke-linecap="round" stroke-linejoin="round"/>
    </g>
  </g>
  <rect width="800" height="600" fill="url(#sheen)"/>
  <rect x="0" y="0" width="800" height="6" fill="#C9A227"/>
  <text x="50%" y="444" text-anchor="middle" font-family="Georgia, 'Times New Roman', serif" font-size="42" fill="#F7F1E6" font-style="italic" letter-spacing="1">Dish Photo</text>
  <text x="50%" y="470" text-anchor="middle" font-family="Arial, sans-serif" font-size="19" fill="#C9A227" letter-spacing="3">PLACEHOLDER 5</text>
</svg>